# xmcd
#
# Track frame offsets:
#	150
#	10161
#	26083
#	37249
#	44820
#	57255
#	69698
#	81443
#	94572
#	108369
#	118979
#	133217
#	145520
#
# Disc length: 2083 seconds
#
# Revision: 0
# Processed by: cddbd v1.5.2PL0 Copyright (c) Steve Scherf et al.
# Submitted via: EasyCDDAExtractor 10.0.2.1
#
DISCID=c008210d
DTITLE=Jussi Syren and the Groundbreakers - The Verdict
DYEAR=1900
DGENRE=Bluegrass
TTITLE0=The Weatherman
TTITLE1=The Verdict
TTITLE2=Shotgun Rider
TTITLE3=Old Deacon Jones
TTITLE4=Didn't They Crucify My Lord
TTITLE5=Sawmill Blues
TTITLE6=A Boy Called Lonesome
TTITLE7=Drivin' My Life Away
TTITLE8=Down In The Wasted Valley
TTITLE9=White Water Rag
TTITLE10=Billy Jack Washburn
TTITLE11=Moses Smote The Water
TTITLE12=Nothing More Than Just A Dream
EXTD=
EXTT0=
EXTT1=
EXTT2=
EXTT3=
EXTT4=
EXTT5=
EXTT6=
EXTT7=
EXTT8=
EXTT9=
EXTT10=
EXTT11=
EXTT12=
PLAYORDER=
